<svg width="2072" height="384" viewBox="0 0 2072 384" fill="none" xmlns="http://www.w3.org/2000/svg">
<path d="M299.428 384H234.443V204.983C234.443 196.494 232.277 190.086 227.945 185.758C223.613 181.264 217.114 179.017 208.45 179.017H91.228V114.101H208.45C214.615 114.101 221.113 114.85 227.945 116.349C234.777 117.68 241.525 119.844 248.19 122.84C255.022 125.836 261.52 129.748 267.685 134.575C273.851 139.235 279.266 144.978 283.931 151.802C288.597 158.46 292.346 166.2 295.179 175.022C298.011 183.844 299.428 193.831 299.428 204.983V384ZM64.9843 384H0V0H64.9843V384Z" fill="#0085FF"/>
<path d="M652.842 292.869C652.842 304.021 651.426 314.091 648.593 323.079C645.761 331.901 642.012 339.724 637.346 346.549C632.681 353.207 627.265 358.949 621.1 363.776C614.935 368.437 608.436 372.265 601.605 375.261C594.94 378.257 588.108 380.505 581.11 382.003C574.278 383.334 567.78 384 561.614 384H444.393C435.395 384 425.564 382.419 414.9 379.256C404.236 376.094 394.322 370.934 385.157 363.776C376.159 356.453 368.578 347.048 362.413 335.563C356.414 323.912 353.415 309.68 353.415 292.869V204.983C353.415 188.338 356.414 174.273 362.413 162.788C368.578 151.137 376.159 141.732 385.157 134.575C394.322 127.251 404.236 122.008 414.9 118.845C425.564 115.683 435.395 114.101 444.393 114.101H561.614C578.277 114.101 592.44 117.098 604.104 123.09C615.768 129.082 625.182 136.655 632.347 145.81C639.512 154.798 644.678 164.619 647.844 175.272C651.176 185.925 652.842 195.828 652.842 204.983V292.869ZM587.858 205.482C587.858 196.494 585.609 189.836 581.11 185.508C576.611 181.181 570.112 179.017 561.614 179.017H444.893C436.228 179.017 429.646 181.264 425.147 185.758C420.648 190.086 418.399 196.494 418.399 204.983V292.869C418.399 301.358 420.648 307.849 425.147 312.343C429.646 316.837 436.228 319.085 444.893 319.085H561.614C570.446 319.085 577.027 316.837 581.36 312.343C585.692 307.849 587.858 301.358 587.858 292.869V205.482Z" fill="#0085FF"/>
<path d="M944.772 179.017H798.557C789.726 179.017 783.061 181.264 778.562 185.758C774.063 190.086 771.814 196.494 771.814 204.983V384H706.829V204.983C706.829 193.831 708.246 183.844 711.078 175.022C713.911 166.2 717.66 158.46 722.326 151.802C727.158 144.978 732.657 139.235 738.822 134.575C744.987 129.748 751.402 125.836 758.067 122.84C764.899 119.844 771.73 117.68 778.562 116.349C785.56 114.85 792.059 114.101 798.057 114.101H944.772V179.017Z" fill="#0085FF"/>
<path d="M1053.75 58.6736H988.761V0H1053.75V58.6736ZM1053.75 384H988.761V114.101H1053.75V384Z" fill="#0085FF"/>
<path d="M1372.17 134.075C1374.83 140.234 1375.5 146.476 1374.17 152.801C1373 159.126 1370.17 164.619 1365.67 169.28L1215.46 319.085H1371.67V384H1137.23C1130.56 384 1124.48 382.169 1118.98 378.507C1113.65 374.679 1109.65 369.852 1106.98 364.026C1104.48 357.867 1103.82 351.625 1104.98 345.3C1106.32 338.809 1109.4 333.15 1114.23 328.322L1263.7 179.017H1107.48V114.101H1342.43C1348.92 114.101 1354.84 115.849 1360.17 119.345C1365.67 122.84 1369.67 127.75 1372.17 134.075Z" fill="#0085FF"/>
<path d="M1717.09 292.869C1717.09 304.021 1715.67 314.091 1712.84 323.079C1710 331.901 1706.25 339.724 1701.59 346.549C1696.92 353.207 1691.51 358.949 1685.34 363.776C1679.18 368.437 1672.68 372.265 1665.85 375.261C1659.18 378.257 1652.35 380.505 1645.35 382.003C1638.52 383.334 1632.02 384 1625.86 384H1508.64C1499.64 384 1489.81 382.419 1479.14 379.256C1468.48 376.094 1458.56 370.934 1449.4 363.776C1440.4 356.453 1432.82 347.048 1426.66 335.563C1420.66 323.912 1417.66 309.68 1417.66 292.869V204.983C1417.66 188.338 1420.66 174.273 1426.66 162.788C1432.82 151.137 1440.4 141.732 1449.4 134.575C1458.56 127.251 1468.48 122.008 1479.14 118.845C1489.81 115.683 1499.64 114.101 1508.64 114.101H1625.86C1642.52 114.101 1656.68 117.098 1668.35 123.09C1680.01 129.082 1689.43 136.655 1696.59 145.81C1703.76 154.798 1708.92 164.619 1712.09 175.272C1715.42 185.925 1717.09 195.828 1717.09 204.983V292.869ZM1652.1 205.482C1652.1 196.494 1649.85 189.836 1645.35 185.508C1640.85 181.181 1634.36 179.017 1625.86 179.017H1509.14C1500.47 179.017 1493.89 181.264 1489.39 185.758C1484.89 190.086 1482.64 196.494 1482.64 204.983V292.869C1482.64 301.358 1484.89 307.849 1489.39 312.343C1493.89 316.837 1500.47 319.085 1509.14 319.085H1625.86C1634.69 319.085 1641.27 316.837 1645.6 312.343C1649.94 307.849 1652.1 301.358 1652.1 292.869V205.482Z" fill="#0085FF"/>
<path d="M2072 384H2007.02V234.195C2007.02 225.706 2005.52 218.133 2002.52 211.475C1999.68 204.65 1995.77 198.824 1990.77 193.997C1985.77 189.17 1979.86 185.508 1973.02 183.012C1966.36 180.349 1959.11 179.017 1951.28 179.017H1837.56V384H1772.57V146.309C1772.57 141.815 1773.41 137.654 1775.07 133.826C1776.74 129.831 1779.07 126.419 1782.07 123.589C1785.07 120.593 1788.57 118.263 1792.57 116.598C1796.57 114.934 1800.82 114.101 1805.31 114.101H1951.78C1959.94 114.101 1968.52 115.017 1977.52 116.848C1986.69 118.679 1995.69 121.675 2004.52 125.836C2013.51 129.831 2022.01 134.991 2030.01 141.316C2038.17 147.475 2045.34 155.048 2051.5 164.036C2057.84 172.858 2062.84 183.095 2066.5 194.746C2070.17 206.398 2072 219.547 2072 234.195V384Z" fill="#0085FF"/>
</svg>
